<?xml version="1.0" encoding="UTF-8" standalone="no"?> <svg xmlns="http://www.w3.org/2000/svg" viewBox="0 0 48 48"><title>Cycling</title><g id="_11_-_20" data-name="11 - 20"><g id="Cycling"><path d="M39,21a8.95,8.95,0,0,0-2.757.436L31.546,11H38a1,1,0,0,1,0,2H36a1,1,0,0,0,0,2h2a3,3,0,0,0,0-6H30a1,1,0,0,0-.912,1.41L31.6,16H18.8l-2.25-5H19a1,1,0,0,0,0-2H12a1,1,0,0,0,0,2h2.353l2.594,5.764-3.68,5.315A9,9,0,1,0,17.941,31H24a1,1,0,0,0,.822-.431l8.083-11.675,1.518,3.371A8.981,8.981,0,1,0,39,21ZM17.905,18.893,22.453,29H17.941a8.977,8.977,0,0,0-3.035-5.774ZM15.92,29H10.909l2.851-4.118A6.978,6.978,0,0,1,15.92,29ZM9,37a7,7,0,1,1,3.117-13.259l-3.939,5.69A1,1,0,0,0,9,31h6.92A7,7,0,0,1,9,37Zm15.186-9.025L19.7,18H31.091ZM39,37a6.994,6.994,0,0,1-3.752-12.9l2.84,6.31a1,1,0,0,0,1.824-.82l-2.841-6.314A7,7,0,1,1,39,37Z"/></g></g></svg>